<?xml version="1.0" encoding="utf-8"?>
<!-- Generator: Adobe Illustrator 16.0.3, SVG Export Plug-In . SVG Version: 6.00 Build 0)  -->
<!DOCTYPE svg PUBLIC "-//W3C//DTD SVG 1.1//EN" "http://www.w3.org/Graphics/SVG/1.1/DTD/svg11.dtd">
<svg version="1.1" id="Layer_1" xmlns="http://www.w3.org/2000/svg" xmlns:xlink="http://www.w3.org/1999/xlink" x="0px" y="0px"
	 width="150px" height="150px" viewBox="0 0 150 150" enable-background="new 0 0 150 150" xml:space="preserve">
<g>
	<polygon fill="#FFFFFF" points="13.142,38.381 17.624,32.644 16.996,25.382 12.514,31.12 	"/>
	<path fill="#FFFFFF" d="M7.942,46.718l1.972-6.456l-3.048-3.943c-0.896,1.972-1.614,3.943-2.331,6.006L7.942,46.718z"/>
	<path fill="#FFFFFF" d="M15.114,41.877l-1.973,6.456l4.303-1.524c0.539-2.242,1.346-4.393,2.152-6.546L15.114,41.877z"/>
	<path fill="#FFFFFF" d="M5.162,60.524L6.06,53.89l-3.766-3.585c-0.448,2.062-0.808,4.302-1.075,6.544L5.162,60.524z"/>
	<path fill="#FFFFFF" d="M11.438,54.518l-0.897,6.634l4.932-2.689c0.179-2.241,0.448-4.482,0.807-6.633L11.438,54.518z"/>
	<path fill="#FFFFFF" d="M5.342,66.62l-4.661-3.227c0,0.897-0.09,1.703-0.09,2.51c0,1.345,0.09,2.869,0.18,4.213l4.661,3.228
		L5.342,66.62z"/>
	<path fill="#FFFFFF" d="M10.9,66.531l0.09,6.725l4.931-3.586c-0.27-2.063-0.448-4.304-0.448-6.456L10.9,66.531z"/>
	<path fill="#FFFFFF" d="M8.301,86.164L6.955,79.53l-5.469-2.42c0.359,2.24,0.808,4.392,1.346,6.633L8.301,86.164z"/>
	<path fill="#FFFFFF" d="M12.245,78.455l1.345,6.633l4.394-4.842c-0.628-2.062-1.166-4.212-1.615-6.365L12.245,78.455z"/>
	<path fill="#FFFFFF" d="M13.948,97.997l-2.779-6.184l-6.274-1.346c0.716,2.062,1.523,4.123,2.42,6.097L13.948,97.997z"/>
	<path fill="#FFFFFF" d="M16.189,89.659l2.779,6.188l3.228-5.648c-0.986-1.972-1.972-3.945-2.779-6.096L16.189,89.659z"/>
	<path fill="#FFFFFF" d="M21.838,108.935l-3.854-5.468l-7.173-0.18c1.076,1.883,2.331,3.766,3.586,5.468L21.838,108.935z"/>
	<path fill="#FFFFFF" d="M22.466,100.329l3.854,5.47l2.152-6.098c-1.345-1.704-2.689-3.587-3.944-5.469L22.466,100.329z"/>
	<path fill="#FFFFFF" d="M24.258,120.231l7.8-1.613l-4.931-4.572l-7.441,1.523C21.21,117.183,22.733,118.707,24.258,120.231z"/>
	<path fill="#FFFFFF" d="M31.699,103.467l-0.807,6.633l4.931,4.572l0.807-6.454C34.837,106.604,33.313,105.079,31.699,103.467z"/>
	<path fill="#FFFFFF" d="M38.96,123.279l-6.544,3.496c1.345,0.986,2.601,1.793,3.945,2.6l1.434,0.717l7.172-3.854L38.96,123.279z"/>
	<path fill="#FFFFFF" d="M41.292,118.348l6.096,2.96l-1.166-6.636c-2.151-1.165-4.213-2.51-6.274-3.943L41.292,118.348z"/>
	<polygon fill="#FFFFFF" points="137.573,31.12 133.093,25.382 132.465,32.644 136.857,38.381 	"/>
	<path fill="#FFFFFF" d="M140.266,40.263l1.971,6.456l3.407-4.393c-0.628-2.063-1.435-4.034-2.33-6.006L140.266,40.263z"/>
	<path fill="#FFFFFF" d="M136.857,48.333l-1.972-6.456l-4.661-1.614c0.896,2.063,1.612,4.304,2.151,6.546L136.857,48.333z"/>
	<path fill="#FFFFFF" d="M148.782,56.759c-0.271-2.152-0.629-4.303-1.077-6.545l-3.765,3.586l0.896,6.634L148.782,56.759z"/>
	<path fill="#FFFFFF" d="M139.457,61.242l-0.895-6.635l-4.842-2.599c0.357,2.151,0.627,4.392,0.807,6.634L139.457,61.242z"/>
	<path fill="#FFFFFF" d="M144.567,73.344l4.663-3.228c0.09-1.344,0.179-2.779,0.179-4.213c0-0.896,0-1.703-0.089-2.51l-4.662,3.227
		L144.567,73.344z"/>
	<path fill="#FFFFFF" d="M139.1,73.344l0.09-6.724l-4.572-3.316c0,2.152-0.179,4.303-0.449,6.455L139.1,73.344z"/>
	<path fill="#FFFFFF" d="M143.134,79.619l-1.345,6.634l5.469-2.421c0.536-2.15,0.985-4.302,1.345-6.633L143.134,79.619z"/>
	<path fill="#FFFFFF" d="M136.41,85.088l1.344-6.633l-4.213-4.483c-0.448,2.152-0.985,4.303-1.614,6.365L136.41,85.088z"/>
	<path fill="#FFFFFF" d="M138.829,91.902l-2.778,6.185l6.634-1.345c0.986-1.973,1.703-4.034,2.421-6.096L138.829,91.902z"/>
	<path fill="#FFFFFF" d="M131.12,95.847l2.78-6.188l-3.229-5.557c-0.808,2.062-1.702,4.124-2.779,6.096L131.12,95.847z"/>
	<path fill="#FFFFFF" d="M132.017,103.467l-3.854,5.468l7.44-0.18c1.345-1.792,2.421-3.585,3.587-5.468L132.017,103.467z"/>
	<path fill="#FFFFFF" d="M123.68,105.799l3.855-5.47l-2.063-6.007c-1.165,1.884-2.421,3.675-3.945,5.469L123.68,105.799z"/>
	<path fill="#FFFFFF" d="M130.402,115.569l-7.44-1.523l-4.93,4.572l7.798,1.613C127.354,118.707,128.879,117.183,130.402,115.569z"
		/>
	<path fill="#FFFFFF" d="M113.369,108.128l0.807,6.454l4.932-4.571l-0.808-6.633C116.776,105.079,115.162,106.604,113.369,108.128z"
		/>
	<path fill="#FFFFFF" d="M111.129,123.279l-6.097,2.959l7.172,3.854l1.436-0.718c1.344-0.807,2.688-1.704,3.942-2.6L111.129,123.279
		z"/>
	<path fill="#FFFFFF" d="M102.702,121.308l6.095-2.96l1.346-7.619c-1.973,1.434-4.034,2.778-6.275,3.943L102.702,121.308z"/>
</g>
<line opacity="0.75" fill="none" stroke="#FFFFFF" stroke-width="2" stroke-miterlimit="10" enable-background="new    " x1="27.934" y1="71.283" x2="122.066" y2="71.283"/>
<g opacity="0.75">
	<path fill="none" stroke="#FFFFFF" stroke-linecap="round" stroke-miterlimit="10" d="M12.47,41.25
		C9.601,48.602,8.076,56.49,8.076,64.828c0,28.688,18.737,53.074,44.736,61.321"/>
	<path fill="none" stroke="#FFFFFF" stroke-linecap="round" stroke-miterlimit="10" d="M137.532,41.25
		c2.868,7.352,4.392,15.241,4.392,23.578c0,28.688-18.736,53.074-44.734,61.321"/>
</g>
<g>
	<polygon fill="#FFFFFF" points="74.956,16.776 85.894,27.624 82.216,31.208 84.368,33.36 90.374,27.624 74.956,12.382 
		69.039,18.209 71.28,20.45 	"/>
	<g>
		<polygon opacity="0.75" fill="#FFFFFF" enable-background="new    " points="82.216,18.209 84.368,20.45 88.134,16.776 
			99.07,27.624 88.134,38.292 77.197,27.624 80.871,23.857 78.631,21.706 74.956,25.382 61.866,12.382 46.537,27.624 61.866,42.774 
			67.784,36.856 65.543,34.705 61.866,38.292 50.929,27.624 61.866,16.776 72.804,27.624 69.039,31.208 71.28,33.36 74.956,29.775 
			88.134,42.774 103.463,27.624 88.134,12.382 		"/>
		<polygon fill="#FFFFFF" points="74.956,38.292 64.019,27.624 67.784,23.857 65.543,21.706 59.625,27.624 74.956,42.774 
			80.871,36.856 78.631,34.705 		"/>
	</g>
</g>
<g>
	<path fill="#FFFFFF" d="M86.969,48.333h-2.153v2.331h-1.522v1.971h1.435v4.125c0,2.241,0.717,3.317,3.317,3.317h0.985v-2.241
		h-0.806c-1.078,0-1.256-0.449-1.256-1.345v-3.945h2.33v-1.972h-2.33V48.333z"/>
	<rect x="91.72" y="46.987" fill="#FFFFFF" width="2.33" height="2.151"/>
	<rect x="91.271" y="50.663" fill="#FFFFFF" width="2.332" height="9.413"/>
	<path fill="#FFFFFF" d="M100.684,54.428c-2.42-0.717-2.868-0.896-2.868-1.344c0-0.45,0.537-0.897,1.435-0.897
		c1.256,0,1.703,0.627,2.062,1.434l1.973-0.537c-0.449-1.614-1.704-2.779-3.945-2.779s-3.586,1.435-3.586,2.868
		c0,1.434,1.076,2.152,3.228,2.779c1.973,0.538,2.51,0.628,2.51,1.345s-0.717,0.986-1.882,0.986c-1.256,0-1.973-0.717-2.062-1.973
		l-2.063,0.539c0.18,1.613,1.436,3.406,4.305,3.406c2.689,0,3.854-1.614,3.854-2.958C103.463,56.042,103.016,55.146,100.684,54.428z
		"/>
	<path fill="#FFFFFF" d="M109.021,50.305c-2.42,0-4.303,1.971-4.303,5.02c0,3.048,1.883,5.02,4.482,5.02
		c1.971,0,3.137-0.986,3.943-2.062l-1.612-1.434c-0.449,0.628-1.077,1.434-2.331,1.434c-1.255,0-2.062-0.806-2.062-2.242h6.275
		v-0.717C113.324,52.187,111.442,50.305,109.021,50.305z M106.96,54.249c0.09-0.986,0.896-1.973,2.062-1.973
		c1.255,0,1.972,0.717,2.062,1.973H106.96z"/>
	<polygon fill="#FFFFFF" points="36.585,60.076 44.385,60.076 44.385,57.835 38.916,57.835 38.916,54.787 43.937,54.787 
		43.937,52.545 38.916,52.545 38.916,49.856 44.385,49.856 44.385,47.615 36.585,47.615 	"/>
	<polygon fill="#FFFFFF" points="54.873,50.663 52.453,50.663 50.391,53.711 50.301,53.711 48.24,50.663 45.819,50.663 
		48.956,55.235 45.64,60.076 48.15,60.076 50.301,56.669 50.391,56.669 52.632,60.076 55.143,60.076 51.825,55.235 	"/>
	<path fill="#FFFFFF" d="M61.149,50.305c-1.883,0-2.511,1.165-2.511,1.165l0,0v-0.986h-2.151v13.447h2.331V59l0,0
		c0,0,0.628,1.166,2.42,1.166c2.152,0,4.124-1.705,4.124-5.021C65.362,52.098,63.301,50.305,61.149,50.305z M60.79,58.194
		c-1.344,0-2.241-0.986-2.241-2.869c0-1.882,0.986-2.869,2.241-2.869c1.256,0,2.242,0.986,2.242,2.869
		C63.032,57.208,62.046,58.194,60.79,58.194z"/>
	<path fill="#FFFFFF" d="M70.921,50.305c-2.421,0-4.304,1.971-4.304,5.02c0,3.048,1.883,5.02,4.482,5.02
		c1.973,0,3.138-0.986,3.945-2.062l-1.613-1.434c-0.448,0.628-1.076,1.434-2.332,1.434c-1.255,0-2.062-0.806-2.062-2.242h6.274
		v-0.717C75.134,52.187,73.251,50.305,70.921,50.305z M68.859,54.249c0.09-0.986,0.896-1.973,2.062-1.973
		c1.255,0,1.973,0.717,2.063,1.973H68.859z"/>
	<path fill="#FFFFFF" d="M80.872,50.394c-0.896,0-1.614,0.538-1.974,1.165l0,0v-0.986h-2.151v9.414h2.331v-5.11
		c0-1.523,0.628-2.151,1.615-2.151c0.179,0,0.537,0.089,0.716,0.179l0.358-2.241C81.499,50.484,81.23,50.394,80.872,50.394z"/>
</g>
<g>
	<path fill="#FFFFFF" d="M30.478,85.444v-8.011h2.614c0.836,0,1.491,0.181,1.964,0.542s0.71,0.903,0.71,1.626
		c0,0.355-0.114,0.674-0.341,0.954c-0.228,0.281-0.526,0.489-0.897,0.625c0.484,0.103,0.865,0.339,1.142,0.709
		c0.277,0.371,0.415,0.802,0.415,1.293c0,0.734-0.237,1.294-0.712,1.682c-0.475,0.387-1.12,0.58-1.934,0.58H30.478z M31.562,80.839
		h1.755c0.403,0,0.731-0.11,0.984-0.333c0.253-0.222,0.38-0.53,0.38-0.927c0-0.433-0.137-0.757-0.41-0.971
		c-0.273-0.215-0.667-0.322-1.18-0.322h-1.53V80.839z M31.562,81.692v2.899h1.876c0.492,0,0.875-0.122,1.15-0.365
		c0.275-0.242,0.413-0.587,0.413-1.032c0-0.468-0.115-0.835-0.344-1.103c-0.229-0.267-0.582-0.399-1.059-0.399H31.562z"/>
	<path fill="#FFFFFF" d="M39.947,85.56c-0.829,0-1.488-0.275-1.978-0.828c-0.49-0.552-0.734-1.268-0.734-2.148v-0.242
		c0-0.847,0.252-1.552,0.756-2.115c0.504-0.563,1.101-0.845,1.791-0.845c0.803,0,1.41,0.242,1.821,0.727
		c0.411,0.484,0.616,1.13,0.616,1.937v0.677h-3.862l-0.017,0.027c0.011,0.571,0.156,1.04,0.435,1.407
		c0.278,0.368,0.669,0.552,1.172,0.552c0.367,0,0.688-0.052,0.965-0.157c0.277-0.104,0.516-0.248,0.718-0.432l0.423,0.705
		c-0.212,0.211-0.493,0.386-0.842,0.526C40.864,85.489,40.442,85.56,39.947,85.56z M39.782,80.234c-0.363,0-0.673,0.152-0.93,0.457
		c-0.257,0.306-0.415,0.688-0.473,1.149l0.011,0.027h2.746v-0.143c0-0.424-0.114-0.778-0.341-1.063S40.229,80.234,39.782,80.234z"/>
	<path fill="#FFFFFF" d="M46.896,83.859c0-0.238-0.091-0.435-0.272-0.588c-0.182-0.154-0.525-0.288-1.032-0.402
		c-0.723-0.157-1.266-0.37-1.631-0.64c-0.365-0.27-0.547-0.637-0.547-1.102c0-0.483,0.206-0.896,0.616-1.235
		c0.411-0.341,0.946-0.512,1.607-0.512c0.693,0,1.244,0.179,1.653,0.534c0.409,0.355,0.604,0.788,0.586,1.298l-0.011,0.033H46.83
		c0-0.26-0.109-0.494-0.328-0.701s-0.507-0.311-0.866-0.311c-0.385,0-0.671,0.084-0.858,0.253s-0.281,0.372-0.281,0.61
		c0,0.235,0.083,0.42,0.248,0.556s0.5,0.257,1.007,0.363c0.752,0.161,1.312,0.381,1.678,0.657c0.367,0.277,0.55,0.648,0.55,1.114
		c0,0.528-0.214,0.956-0.641,1.282s-0.986,0.489-1.675,0.489c-0.759,0-1.357-0.192-1.794-0.577
		c-0.437-0.386-0.644-0.835-0.622-1.349l0.011-0.032h1.034c0.019,0.383,0.162,0.663,0.429,0.84s0.582,0.266,0.941,0.266
		c0.385,0,0.687-0.078,0.905-0.233C46.787,84.317,46.896,84.113,46.896,83.859z"/>
	<path fill="#FFFFFF" d="M50.758,78.056v1.436h1.128v0.804h-1.128v3.614c0,0.279,0.058,0.476,0.173,0.589s0.269,0.171,0.459,0.171
		c0.062,0,0.131-0.008,0.206-0.022s0.142-0.033,0.201-0.055l0.143,0.742c-0.081,0.066-0.199,0.12-0.355,0.163
		c-0.156,0.042-0.313,0.063-0.471,0.063c-0.44,0-0.79-0.133-1.051-0.398c-0.26-0.266-0.391-0.684-0.391-1.252v-3.614h-0.946v-0.804
		h0.946v-1.436H50.758z"/>
	<path fill="#FFFFFF" d="M57.311,84.592h3.791v0.853h-4.875v-8.011h1.084V84.592z"/>
	<path fill="#FFFFFF" d="M65.768,85.444c-0.037-0.18-0.065-0.338-0.085-0.476c-0.021-0.138-0.032-0.276-0.036-0.416
		c-0.202,0.286-0.465,0.525-0.79,0.719c-0.325,0.192-0.674,0.288-1.048,0.288c-0.62,0-1.092-0.158-1.417-0.476
		c-0.325-0.317-0.487-0.755-0.487-1.313c0-0.568,0.23-1.013,0.691-1.334c0.46-0.321,1.084-0.481,1.873-0.481h1.178v-0.589
		c0-0.349-0.106-0.624-0.319-0.828c-0.213-0.203-0.514-0.305-0.902-0.305c-0.349,0-0.632,0.089-0.85,0.267s-0.327,0.392-0.327,0.641
		h-1.035l-0.011-0.033c-0.022-0.433,0.182-0.828,0.613-1.188c0.431-0.359,0.988-0.539,1.67-0.539c0.675,0,1.218,0.172,1.628,0.515
		c0.411,0.343,0.616,0.837,0.616,1.482v2.867c0,0.213,0.011,0.418,0.033,0.616s0.063,0.393,0.121,0.583H65.768z M63.968,84.646
		c0.393,0,0.746-0.101,1.062-0.302c0.315-0.201,0.521-0.432,0.616-0.691v-0.966H64.43c-0.437,0-0.786,0.11-1.048,0.329
		c-0.262,0.22-0.394,0.478-0.394,0.774c0,0.263,0.083,0.472,0.248,0.625S63.646,84.646,63.968,84.646z"/>
	<path fill="#FFFFFF" d="M69.272,79.491l0.077,0.886c0.198-0.315,0.447-0.561,0.746-0.734s0.639-0.262,1.021-0.262
		c0.642,0,1.139,0.188,1.491,0.564s0.528,0.956,0.528,1.741v3.758h-1.084v-3.735c0-0.525-0.104-0.897-0.311-1.117
		c-0.207-0.221-0.523-0.33-0.949-0.33c-0.312,0-0.587,0.075-0.828,0.226s-0.432,0.355-0.575,0.616v4.341h-1.084v-5.953H69.272z"/>
	<path fill="#FFFFFF" d="M74.46,82.578c0-0.958,0.205-1.729,0.614-2.316c0.409-0.587,0.982-0.881,1.72-0.881
		c0.348,0,0.656,0.064,0.926,0.193c0.27,0.128,0.5,0.315,0.691,0.561v-3.273h1.084v8.583h-0.887l-0.125-0.731
		c-0.195,0.278-0.434,0.489-0.717,0.633c-0.281,0.143-0.609,0.214-0.984,0.214c-0.726,0-1.295-0.263-1.706-0.789
		s-0.616-1.219-0.616-2.077V82.578z M75.544,82.693c0,0.602,0.123,1.083,0.369,1.444c0.245,0.361,0.627,0.542,1.145,0.542
		c0.322,0,0.594-0.073,0.814-0.22c0.221-0.147,0.4-0.353,0.539-0.616v-2.779c-0.139-0.245-0.32-0.44-0.543-0.586
		c-0.221-0.145-0.488-0.217-0.799-0.217c-0.521,0-0.905,0.215-1.153,0.644c-0.248,0.429-0.372,0.986-0.372,1.673V82.693z"/>
	<path fill="#FFFFFF" d="M84.572,83.859c0-0.238-0.091-0.435-0.271-0.588c-0.182-0.154-0.525-0.288-1.032-0.402
		c-0.723-0.157-1.267-0.37-1.631-0.64c-0.365-0.27-0.548-0.637-0.548-1.102c0-0.483,0.205-0.896,0.616-1.235
		c0.411-0.341,0.946-0.512,1.606-0.512c0.693,0,1.244,0.179,1.653,0.534s0.604,0.788,0.586,1.298l-0.011,0.033h-1.034
		c0-0.26-0.109-0.494-0.327-0.701c-0.219-0.207-0.508-0.311-0.867-0.311c-0.385,0-0.671,0.084-0.858,0.253
		c-0.187,0.169-0.28,0.372-0.28,0.61c0,0.235,0.083,0.42,0.248,0.556s0.5,0.257,1.007,0.363c0.751,0.161,1.311,0.381,1.678,0.657
		c0.366,0.277,0.55,0.648,0.55,1.114c0,0.528-0.214,0.956-0.641,1.282c-0.428,0.326-0.985,0.489-1.676,0.489
		c-0.759,0-1.356-0.192-1.793-0.577c-0.437-0.386-0.644-0.835-0.622-1.349l0.011-0.032h1.035c0.018,0.383,0.161,0.663,0.429,0.84
		s0.581,0.266,0.94,0.266c0.386,0,0.688-0.078,0.905-0.233C84.464,84.317,84.572,84.113,84.572,83.859z"/>
	<path fill="#FFFFFF" d="M89.426,84.707c0.359,0,0.676-0.111,0.948-0.333c0.273-0.222,0.41-0.494,0.41-0.816h0.974l0.012,0.032
		c0.018,0.514-0.21,0.971-0.686,1.37c-0.475,0.4-1.027,0.6-1.658,0.6c-0.866,0-1.528-0.282-1.986-0.847
		c-0.459-0.565-0.688-1.274-0.688-2.13v-0.23c0-0.848,0.23-1.555,0.691-2.121c0.46-0.567,1.121-0.851,1.983-0.851
		c0.696,0,1.266,0.206,1.708,0.616c0.442,0.411,0.655,0.916,0.641,1.514l-0.011,0.033h-0.979c0-0.363-0.128-0.673-0.385-0.928
		s-0.582-0.382-0.974-0.382c-0.569,0-0.976,0.204-1.219,0.612c-0.244,0.408-0.366,0.909-0.366,1.503v0.23
		c0,0.608,0.121,1.115,0.363,1.52C88.446,84.505,88.854,84.707,89.426,84.707z"/>
	<path fill="#FFFFFF" d="M96.645,85.444c-0.036-0.18-0.064-0.338-0.085-0.476s-0.032-0.276-0.036-0.416
		c-0.201,0.286-0.465,0.525-0.789,0.719c-0.325,0.192-0.674,0.288-1.048,0.288c-0.62,0-1.093-0.158-1.417-0.476
		c-0.325-0.317-0.487-0.755-0.487-1.313c0-0.568,0.23-1.013,0.69-1.334c0.461-0.321,1.085-0.481,1.874-0.481h1.177v-0.589
		c0-0.349-0.106-0.624-0.318-0.828c-0.213-0.203-0.514-0.305-0.902-0.305c-0.349,0-0.632,0.089-0.851,0.267
		c-0.218,0.178-0.327,0.392-0.327,0.641h-1.034l-0.012-0.033c-0.021-0.433,0.183-0.828,0.614-1.188
		c0.431-0.359,0.987-0.539,1.67-0.539c0.675,0,1.218,0.172,1.628,0.515c0.411,0.343,0.616,0.837,0.616,1.482v2.867
		c0,0.213,0.011,0.418,0.033,0.616s0.063,0.393,0.121,0.583H96.645z M94.846,84.646c0.393,0,0.746-0.101,1.062-0.302
		s0.521-0.432,0.616-0.691v-0.966h-1.216c-0.437,0-0.786,0.11-1.048,0.329c-0.263,0.22-0.394,0.478-0.394,0.774
		c0,0.263,0.083,0.472,0.248,0.625S94.522,84.646,94.846,84.646z"/>
	<path fill="#FFFFFF" d="M104.253,82.693c0,0.858-0.205,1.551-0.616,2.077s-0.978,0.789-1.7,0.789c-0.366,0-0.688-0.062-0.965-0.184
		c-0.277-0.123-0.513-0.308-0.707-0.554v2.911h-1.084v-8.242h0.83l0.171,0.771c0.194-0.286,0.437-0.505,0.727-0.655
		c0.289-0.15,0.627-0.226,1.012-0.226c0.737,0,1.311,0.293,1.72,0.878s0.613,1.358,0.613,2.319V82.693z M103.169,82.575
		c0-0.674-0.133-1.229-0.398-1.662c-0.267-0.435-0.657-0.651-1.175-0.651c-0.312,0-0.578,0.07-0.798,0.211
		c-0.22,0.142-0.398,0.335-0.533,0.58v2.874c0.135,0.245,0.313,0.437,0.533,0.574s0.489,0.206,0.809,0.206
		c0.514,0,0.902-0.188,1.167-0.563c0.264-0.375,0.396-0.859,0.396-1.453V82.575z"/>
	<path fill="#FFFFFF" d="M108.055,85.56c-0.829,0-1.488-0.275-1.978-0.828c-0.49-0.552-0.734-1.268-0.734-2.148v-0.242
		c0-0.847,0.252-1.552,0.756-2.115c0.505-0.563,1.102-0.845,1.791-0.845c0.804,0,1.41,0.242,1.821,0.727s0.616,1.13,0.616,1.937
		v0.677h-3.862l-0.017,0.027c0.011,0.571,0.156,1.04,0.435,1.407c0.279,0.368,0.67,0.552,1.172,0.552
		c0.367,0,0.688-0.052,0.966-0.157c0.277-0.104,0.517-0.248,0.718-0.432l0.424,0.705c-0.213,0.211-0.493,0.386-0.842,0.526
		C108.972,85.489,108.55,85.56,108.055,85.56z M107.89,80.234c-0.363,0-0.673,0.152-0.93,0.457
		c-0.257,0.306-0.414,0.688-0.473,1.149l0.011,0.027h2.745v-0.143c0-0.424-0.113-0.778-0.341-1.063S108.338,80.234,107.89,80.234z"
		/>
	<path fill="#FFFFFF" d="M114.36,80.448l-0.556-0.032c-0.286,0-0.527,0.067-0.724,0.203s-0.348,0.326-0.453,0.572v4.253h-1.084
		v-5.953h0.968l0.104,0.869c0.169-0.308,0.377-0.548,0.625-0.721c0.247-0.172,0.532-0.259,0.855-0.259c0.08,0,0.157,0.007,0.23,0.02
		c0.074,0.013,0.135,0.026,0.182,0.041L114.36,80.448z"/>
	<path fill="#FFFFFF" d="M118.866,83.859c0-0.238-0.091-0.435-0.271-0.588c-0.182-0.154-0.525-0.288-1.032-0.402
		c-0.723-0.157-1.267-0.37-1.631-0.64c-0.365-0.27-0.548-0.637-0.548-1.102c0-0.483,0.205-0.896,0.616-1.235
		c0.411-0.341,0.946-0.512,1.606-0.512c0.693,0,1.244,0.179,1.653,0.534s0.604,0.788,0.586,1.298l-0.011,0.033h-1.034
		c0-0.26-0.109-0.494-0.327-0.701c-0.219-0.207-0.508-0.311-0.867-0.311c-0.385,0-0.671,0.084-0.858,0.253
		c-0.187,0.169-0.28,0.372-0.28,0.61c0,0.235,0.083,0.42,0.248,0.556s0.5,0.257,1.007,0.363c0.751,0.161,1.311,0.381,1.678,0.657
		c0.366,0.277,0.55,0.648,0.55,1.114c0,0.528-0.214,0.956-0.641,1.282c-0.428,0.326-0.985,0.489-1.676,0.489
		c-0.759,0-1.356-0.192-1.793-0.577c-0.437-0.386-0.644-0.835-0.622-1.349l0.011-0.032h1.035c0.018,0.383,0.161,0.663,0.429,0.84
		s0.581,0.266,0.94,0.266c0.386,0,0.688-0.078,0.905-0.233C118.758,84.317,118.866,84.113,118.866,83.859z"/>
	<path fill="#FFFFFF" d="M43.793,91.488h-1.083v-1.105h1.083V91.488z M43.793,98.966h-1.083v-5.953h1.083V98.966z"/>
	<path fill="#FFFFFF" d="M46.428,93.013l0.077,0.886c0.198-0.315,0.447-0.561,0.746-0.734s0.639-0.262,1.021-0.262
		c0.642,0,1.139,0.188,1.491,0.564s0.528,0.956,0.528,1.741v3.758h-1.084V95.23c0-0.525-0.104-0.897-0.311-1.117
		c-0.207-0.221-0.523-0.33-0.949-0.33c-0.312,0-0.587,0.075-0.828,0.226s-0.432,0.355-0.575,0.616v4.341H45.46v-5.953H46.428z"/>
	<path fill="#FFFFFF" d="M56.255,90.955l2.553,6.509h0.033l2.553-6.509h1.387v8.011h-1.084v-3.169l0.11-3.257l-0.027-0.006
		l-2.597,6.432h-0.721l-2.586-6.415l-0.027,0.005l0.104,3.241v3.169h-1.084v-8.011H56.255z"/>
	<path fill="#FFFFFF" d="M65.735,91.488h-1.083v-1.105h1.083V91.488z M65.735,98.966h-1.083v-5.953h1.083V98.966z"/>
	<path fill="#FFFFFF" d="M68.574,98.966H67.49v-8.583h1.083V98.966z"/>
	<path fill="#FFFFFF" d="M71.765,96.798l0.126,0.721h0.033l0.154-0.721l1.188-3.785h0.869l1.194,3.785l0.171,0.804h0.033l0.16-0.804
		l0.936-3.785h1.078l-1.728,5.953h-0.875l-1.15-3.626l-0.248-1.012l-0.033,0.005l-0.237,1.007l-1.133,3.626h-0.875l-1.728-5.953
		h1.079L71.765,96.798z"/>
	<path fill="#FFFFFF" d="M82.428,98.966c-0.036-0.18-0.064-0.338-0.085-0.476s-0.032-0.276-0.036-0.416
		c-0.201,0.286-0.465,0.525-0.789,0.719c-0.325,0.192-0.674,0.288-1.048,0.288c-0.62,0-1.093-0.158-1.417-0.476
		c-0.325-0.317-0.487-0.755-0.487-1.313c0-0.568,0.23-1.013,0.69-1.334c0.461-0.321,1.085-0.481,1.874-0.481h1.177v-0.589
		c0-0.349-0.106-0.624-0.318-0.828c-0.213-0.203-0.514-0.305-0.902-0.305c-0.349,0-0.632,0.089-0.851,0.267
		c-0.218,0.178-0.327,0.392-0.327,0.641h-1.034l-0.012-0.033c-0.021-0.433,0.183-0.828,0.614-1.188
		c0.431-0.359,0.987-0.539,1.67-0.539c0.675,0,1.218,0.172,1.628,0.515c0.411,0.343,0.616,0.837,0.616,1.482v2.867
		c0,0.213,0.011,0.418,0.033,0.616s0.063,0.393,0.121,0.583H82.428z M80.629,98.168c0.393,0,0.746-0.101,1.062-0.302
		s0.521-0.432,0.616-0.691v-0.966h-1.216c-0.437,0-0.786,0.11-1.048,0.329c-0.263,0.22-0.394,0.478-0.394,0.774
		c0,0.263,0.083,0.472,0.248,0.625S80.306,98.168,80.629,98.168z"/>
	<path fill="#FFFFFF" d="M88.744,98.086c-0.187,0.318-0.427,0.564-0.721,0.737c-0.293,0.172-0.633,0.258-1.018,0.258
		c-0.649,0-1.155-0.207-1.519-0.621c-0.363-0.415-0.545-1.061-0.545-1.937v-3.511h1.084v3.521c0,0.635,0.094,1.071,0.28,1.31
		c0.188,0.238,0.479,0.357,0.875,0.357c0.386,0,0.703-0.078,0.955-0.234c0.251-0.155,0.44-0.376,0.569-0.662v-4.292h1.084v5.953
		h-0.975L88.744,98.086z"/>
	<path fill="#FFFFFF" d="M93.162,96.209h-0.704v2.757h-1.084v-8.583h1.084v4.974h0.693l1.629-2.344h1.298l-2.035,2.702l2.327,3.251
		h-1.276L93.162,96.209z"/>
	<path fill="#FFFFFF" d="M99.506,99.081c-0.829,0-1.488-0.275-1.978-0.828c-0.49-0.552-0.734-1.268-0.734-2.148v-0.242
		c0-0.847,0.252-1.552,0.756-2.115c0.505-0.563,1.102-0.845,1.791-0.845c0.804,0,1.41,0.242,1.821,0.727s0.616,1.13,0.616,1.937
		v0.677h-3.862l-0.017,0.027c0.011,0.571,0.156,1.04,0.435,1.407c0.279,0.368,0.67,0.552,1.172,0.552
		c0.367,0,0.688-0.052,0.966-0.157c0.277-0.104,0.517-0.248,0.718-0.432l0.424,0.705c-0.213,0.211-0.493,0.386-0.842,0.526
		C100.423,99.011,100.001,99.081,99.506,99.081z M99.341,93.756c-0.363,0-0.673,0.152-0.93,0.457
		c-0.257,0.306-0.414,0.688-0.473,1.149l0.011,0.027h2.745v-0.143c0-0.424-0.113-0.778-0.341-1.063S99.789,93.756,99.341,93.756z"/>
	<path fill="#FFFFFF" d="M105.464,99.081c-0.829,0-1.488-0.275-1.978-0.828c-0.49-0.552-0.734-1.268-0.734-2.148v-0.242
		c0-0.847,0.252-1.552,0.756-2.115c0.505-0.563,1.102-0.845,1.791-0.845c0.804,0,1.41,0.242,1.821,0.727s0.616,1.13,0.616,1.937
		v0.677h-3.862l-0.017,0.027c0.011,0.571,0.156,1.04,0.435,1.407c0.279,0.368,0.67,0.552,1.172,0.552
		c0.367,0,0.688-0.052,0.966-0.157c0.277-0.104,0.517-0.248,0.718-0.432l0.424,0.705c-0.213,0.211-0.493,0.386-0.842,0.526
		C106.381,99.011,105.959,99.081,105.464,99.081z M105.299,93.756c-0.363,0-0.673,0.152-0.93,0.457
		c-0.257,0.306-0.414,0.688-0.473,1.149l0.011,0.027h2.745v-0.143c0-0.424-0.113-0.778-0.341-1.063S105.747,93.756,105.299,93.756z"
		/>
</g>
<g>
	<path fill="#FFFFFF" d="M65.159,132.523h-7.6v-1.319l3.726-4.057c0.607-0.666,1.027-1.212,1.257-1.639
		c0.23-0.428,0.346-0.846,0.346-1.254c0-0.514-0.149-0.943-0.448-1.289s-0.702-0.519-1.21-0.519c-0.671,0-1.168,0.188-1.494,0.565
		c-0.325,0.378-0.487,0.896-0.487,1.557h-1.847l-0.016-0.047c-0.026-1.017,0.307-1.872,0.999-2.566
		c0.691-0.694,1.64-1.042,2.845-1.042c1.101,0,1.97,0.305,2.609,0.912s0.959,1.401,0.959,2.382c0,0.654-0.185,1.281-0.554,1.878
		c-0.369,0.598-0.942,1.323-1.717,2.178l-2.547,2.68l0.024,0.048h5.156V132.523z"/>
	<path fill="#FFFFFF" d="M74.175,128.114c0,1.488-0.335,2.622-1.006,3.403c-0.67,0.78-1.583,1.171-2.735,1.171
		c-1.158,0-2.075-0.391-2.751-1.171c-0.676-0.781-1.014-1.915-1.014-3.403v-2.617c0-1.483,0.335-2.618,1.006-3.403
		c0.67-0.786,1.585-1.18,2.743-1.18c1.153,0,2.067,0.394,2.743,1.18c0.676,0.785,1.014,1.92,1.014,3.403V128.114z M72.265,125.203
		c0-0.937-0.157-1.631-0.472-2.081c-0.314-0.45-0.773-0.675-1.375-0.675s-1.06,0.225-1.372,0.675
		c-0.312,0.45-0.467,1.145-0.467,2.081v3.181c0,0.942,0.158,1.64,0.476,2.093c0.317,0.453,0.776,0.68,1.379,0.68
		c0.603,0,1.058-0.226,1.368-0.676c0.309-0.45,0.463-1.149,0.463-2.097V125.203z"/>
	<path fill="#FFFFFF" d="M80.644,132.523h-1.91v-9.628h-2.327v-1.407l4.237-0.409V132.523z"/>
	<path fill="#FFFFFF" d="M92.599,122.612c-1.315,1.546-2.203,2.939-2.664,4.182c-0.461,1.241-0.797,2.748-1.006,4.52l-0.118,1.21
		H86.9l0.118-1.21c0.204-1.729,0.613-3.298,1.226-4.705c0.613-1.406,1.449-2.738,2.508-3.996h-6.061v-1.533h7.907V122.612z"/>
</g>
</svg>
