<?xml version="1.0" encoding="utf-8"?>
<!-- Generator: Adobe Illustrator 19.1.0, SVG Export Plug-In . SVG Version: 6.00 Build 0)  -->
<svg version="1.1" id="Layer_1" xmlns="http://www.w3.org/2000/svg" xmlns:xlink="http://www.w3.org/1999/xlink" x="0px" y="0px"
	 viewBox="-31 15.3 202.9 161.6" style="enable-background:new -31 15.3 202.9 161.6;" xml:space="preserve">
<style type="text/css">
	.st0{fill:#FFFFFF;}
	.st1{opacity:0.75;fill:none;stroke:#FFFFFF;stroke-width:2.3;stroke-miterlimit:10;enable-background:new    ;}
	.st2{opacity:0.75;}
	.st3{fill:none;stroke:#FFFFFF;stroke-linecap:round;stroke-miterlimit:10;}
	.st4{opacity:0.75;fill:#FFFFFF;enable-background:new    ;}
</style>
<g>
	<polygon class="st0" points="1.7,59.3 6.7,52.9 6,44.8 1,51.2 	"/>
	<path class="st0" d="M-4.1,68.6l2.2-7.2L-5.3,57c-1,2.2-1.8,4.4-2.6,6.7L-4.1,68.6z"/>
	<path class="st0" d="M3.9,63.2l-2.2,7.2l4.8-1.7c0.6-2.5,1.5-4.9,2.4-7.3L3.9,63.2z"/>
	<path class="st0" d="M-7.2,84l1-7.4l-4.2-4c-0.5,2.3-0.9,4.8-1.2,7.3L-7.2,84z"/>
	<path class="st0" d="M-0.2,77.3l-1,7.4l5.5-3c0.2-2.5,0.5-5,0.9-7.4L-0.2,77.3z"/>
	<path class="st0" d="M-7,90.8l-5.2-3.6c0,1-0.1,1.9-0.1,2.8c0,1.5,0.1,3.2,0.2,4.7l5.2,3.6L-7,90.8z"/>
	<path class="st0" d="M-0.8,90.7l0.1,7.5l5.5-4c-0.3-2.3-0.5-4.8-0.5-7.2L-0.8,90.7z"/>
	<path class="st0" d="M-3.7,112.6l-1.5-7.4l-6.1-2.7c0.4,2.5,0.9,4.9,1.5,7.4L-3.7,112.6z"/>
	<path class="st0" d="M0.7,104l1.5,7.4l4.9-5.4c-0.7-2.3-1.3-4.7-1.8-7.1L0.7,104z"/>
	<path class="st0" d="M2.6,125.8l-3.1-6.9l-7-1.5c0.8,2.3,1.7,4.6,2.7,6.8L2.6,125.8z"/>
	<path class="st0" d="M5.1,116.5l3.1,6.9l3.6-6.3c-1.1-2.2-2.2-4.4-3.1-6.8L5.1,116.5z"/>
	<path class="st0" d="M11.4,138l-4.3-6.1l-8-0.2c1.2,2.1,2.6,4.2,4,6.1L11.4,138z"/>
	<path class="st0" d="M12.1,128.4l4.3,6.1l2.4-6.8c-1.5-1.9-3-4-4.4-6.1L12.1,128.4z"/>
	<path class="st0" d="M14.1,150.6l8.7-1.8l-5.5-5.1L9,145.4C10.7,147.2,12.4,148.9,14.1,150.6z"/>
	<path class="st0" d="M22.4,131.9l-0.9,7.4l5.5,5.1l0.9-7.2C25.9,135.4,24.2,133.7,22.4,131.9z"/>
	<path class="st0" d="M30.5,154l-7.3,3.9c1.5,1.1,2.9,2,4.4,2.9l1.6,0.8l8-4.3L30.5,154z"/>
	<path class="st0" d="M33.1,148.5l6.8,3.3l-1.3-7.4c-2.4-1.3-4.7-2.8-7-4.4L33.1,148.5z"/>
	<polygon class="st0" points="140.5,51.2 135.5,44.8 134.8,52.9 139.7,59.3 	"/>
	<path class="st0" d="M143.5,61.4l2.2,7.2l3.8-4.9c-0.7-2.3-1.6-4.5-2.6-6.7L143.5,61.4z"/>
	<path class="st0" d="M139.7,70.4l-2.2-7.2l-5.2-1.8c1,2.3,1.8,4.8,2.4,7.3L139.7,70.4z"/>
	<path class="st0" d="M153,79.8c-0.3-2.4-0.7-4.8-1.2-7.3l-4.2,4l1,7.4L153,79.8z"/>
	<path class="st0" d="M142.6,84.8l-1-7.4l-5.4-2.9c0.4,2.4,0.7,4.9,0.9,7.4L142.6,84.8z"/>
	<path class="st0" d="M148.3,98.3l5.2-3.6c0.1-1.5,0.2-3.1,0.2-4.7c0-1,0-1.9-0.1-2.8l-5.2,3.6L148.3,98.3z"/>
	<path class="st0" d="M142.2,98.3l0.1-7.5l-5.1-3.7c0,2.4-0.2,4.8-0.5,7.2L142.2,98.3z"/>
	<path class="st0" d="M146.7,105.3l-1.5,7.4l6.1-2.7c0.6-2.4,1.1-4.8,1.5-7.4L146.7,105.3z"/>
	<path class="st0" d="M139.2,111.4l1.5-7.4L136,99c-0.5,2.4-1.1,4.8-1.8,7.1L139.2,111.4z"/>
	<path class="st0" d="M141.9,119l-3.1,6.9l7.4-1.5c1.1-2.2,1.9-4.5,2.7-6.8L141.9,119z"/>
	<path class="st0" d="M133.3,123.4l3.1-6.9l-3.6-6.2c-0.9,2.3-1.9,4.6-3.1,6.8L133.3,123.4z"/>
	<path class="st0" d="M134.3,131.9L130,138l8.3-0.2c1.5-2,2.7-4,4-6.1L134.3,131.9z"/>
	<path class="st0" d="M125,134.5l4.3-6.1l-2.3-6.7c-1.3,2.1-2.7,4.1-4.4,6.1L125,134.5z"/>
	<path class="st0" d="M132.5,145.4l-8.3-1.7l-5.5,5.1l8.7,1.8C129.1,148.9,130.8,147.2,132.5,145.4z"/>
	<path class="st0" d="M113.5,137.1l0.9,7.2l5.5-5.1l-0.9-7.4C117.3,133.7,115.5,135.4,113.5,137.1z"/>
	<path class="st0" d="M111,154l-6.8,3.3l8,4.3l1.6-0.8c1.5-0.9,3-1.9,4.4-2.9L111,154z"/>
	<path class="st0" d="M101.6,151.8l6.8-3.3l1.5-8.5c-2.2,1.6-4.5,3.1-7,4.4L101.6,151.8z"/>
</g>
<line class="st1" x1="18.5" y1="96" x2="123.5" y2="96"/>
<g class="st2">
	<path class="st3" d="M1,62.5c-3.2,8.2-4.9,17-4.9,26.3c0,32,20.9,59.2,49.9,68.4"/>
	<path class="st3" d="M140.5,62.5c3.2,8.2,4.9,17,4.9,26.3c0,32-20.9,59.2-49.9,68.4"/>
</g>
<g>
	<g>
		<g>
			<polygon class="st0" points="69.4,35.2 81.6,47.3 77.5,51.3 79.9,53.7 86.6,47.3 69.4,30.3 62.8,36.8 65.3,39.3 			"/>
			<polygon class="st4" points="77.5,36.8 79.9,39.3 84.1,35.2 96.3,47.3 84.1,59.2 71.9,47.3 76,43.1 73.5,40.7 69.4,44.8 
				54.8,30.3 37.7,47.3 54.8,64.2 61.4,57.6 58.9,55.2 54.8,59.2 42.6,47.3 54.8,35.2 67,47.3 62.8,51.3 65.3,53.7 69.4,49.7 
				84.1,64.2 101.2,47.3 84.1,30.3 			"/>
			<polygon class="st0" points="69.4,59.2 57.2,47.3 61.4,43.1 58.9,40.7 52.3,47.3 69.4,64.2 76,57.6 73.5,55.2 			"/>
		</g>
		<g>
			<path class="st0" d="M85,70.4h-2.4V73h-1.7v2.2h1.6v4.6c0,2.5,0.8,3.7,3.7,3.7h1.1V81h-0.9c-1.2,0-1.4-0.5-1.4-1.5v-4.4h2.6v-2.2
				H85V70.4z"/>
			<rect x="90.3" y="68.9" class="st0" width="2.6" height="2.4"/>
			<rect x="89.8" y="73" class="st0" width="2.6" height="10.5"/>
			<path class="st0" d="M100.3,77.2c-2.7-0.8-3.2-1-3.2-1.5c0-0.5,0.6-1,1.6-1c1.4,0,1.9,0.7,2.3,1.6l2.2-0.6
				c-0.5-1.8-1.9-3.1-4.4-3.1s-4,1.6-4,3.2c0,1.6,1.2,2.4,3.6,3.1c2.2,0.6,2.8,0.7,2.8,1.5s-0.8,1.1-2.1,1.1c-1.4,0-2.2-0.8-2.3-2.2
				l-2.3,0.6c0.2,1.8,1.6,3.8,4.8,3.8c3,0,4.3-1.8,4.3-3.3C103.4,79,102.9,78,100.3,77.2z"/>
			<path class="st0" d="M109.6,72.6c-2.7,0-4.8,2.2-4.8,5.6c0,3.4,2.1,5.6,5,5.6c2.2,0,3.5-1.1,4.4-2.3l-1.8-1.6
				c-0.5,0.7-1.2,1.6-2.6,1.6c-1.4,0-2.3-0.9-2.3-2.5h7v-0.8C114.4,74.7,112.3,72.6,109.6,72.6z M107.3,77c0.1-1.1,1-2.2,2.3-2.2
				c1.4,0,2.2,0.8,2.3,2.2H107.3z"/>
			<polygon class="st0" points="28.8,83.5 37.5,83.5 37.5,81 31.4,81 31.4,77.6 37,77.6 37,75.1 31.4,75.1 31.4,72.1 37.5,72.1 
				37.5,69.6 28.8,69.6 			"/>
			<polygon class="st0" points="49.2,73 46.5,73 44.2,76.4 44.1,76.4 41.8,73 39.1,73 42.6,78.1 38.9,83.5 41.7,83.5 44.1,79.7 
				44.2,79.7 46.7,83.5 49.5,83.5 45.8,78.1 			"/>
			<path class="st0" d="M56.2,72.6c-2.1,0-2.8,1.3-2.8,1.3l0,0v-1.1H51v15h2.6v-5.5l0,0c0,0,0.7,1.3,2.7,1.3c2.4,0,4.6-1.9,4.6-5.6
				C60.9,74.6,58.6,72.6,56.2,72.6z M55.8,81.4c-1.5,0-2.5-1.1-2.5-3.2s1.1-3.2,2.5-3.2s2.5,1.1,2.5,3.2S57.2,81.4,55.8,81.4z"/>
			<path class="st0" d="M67.1,72.6c-2.7,0-4.8,2.2-4.8,5.6c0,3.4,2.1,5.6,5,5.6c2.2,0,3.5-1.1,4.4-2.3l-1.8-1.6
				c-0.5,0.7-1.2,1.6-2.6,1.6c-1.4,0-2.3-0.9-2.3-2.5h7v-0.8C71.8,74.7,69.7,72.6,67.1,72.6z M64.8,77c0.1-1.1,1-2.2,2.3-2.2
				c1.4,0,2.2,0.8,2.3,2.2H64.8z"/>
			<path class="st0" d="M78.2,72.7c-1,0-1.8,0.6-2.2,1.3l0,0v-1.1h-2.4v10.5h2.6v-5.7c0-1.7,0.7-2.4,1.8-2.4c0.2,0,0.6,0.1,0.8,0.2
				l0.4-2.5C78.9,72.8,78.6,72.7,78.2,72.7z"/>
		</g>
	</g>
</g>
</svg>
